<mxfile host="app.diagrams.net" agent="Mozilla/5.0 (Windows NT 10.0; Win64; x64) AppleWebKit/537.36 (KHTML, like Gecko) Chrome/127.0.0.0 Safari/537.36" version="24.7.7">
  <diagram name="Page-1" id="oe9PQEnj7CZM9wompqn2">
    <mxGraphModel dx="4635" dy="655" grid="1" gridSize="10" guides="1" tooltips="1" connect="1" arrows="1" fold="1" page="1" pageScale="1" pageWidth="850" pageHeight="1100" math="0" shadow="0">
      <root>
        <mxCell id="0" />
        <mxCell id="1" parent="0" />
        <mxCell id="Kr9c1GuOgurX0YWUTEC0-1" value="ENVIRONMENT" style="rounded=0;whiteSpace=wrap;html=1;" parent="1" vertex="1">
          <mxGeometry x="365" y="90" width="120" height="60" as="geometry" />
        </mxCell>
        <mxCell id="Kr9c1GuOgurX0YWUTEC0-2" value="INDOOR/PROVATE SPACE" style="rounded=1;whiteSpace=wrap;html=1;" parent="1" vertex="1">
          <mxGeometry x="170" y="220" width="140" height="60" as="geometry" />
        </mxCell>
        <mxCell id="Kr9c1GuOgurX0YWUTEC0-3" style="edgeStyle=orthogonalEdgeStyle;rounded=0;orthogonalLoop=1;jettySize=auto;html=1;entryX=0.5;entryY=0;entryDx=0;entryDy=0;" parent="1" source="Kr9c1GuOgurX0YWUTEC0-5" target="Kr9c1GuOgurX0YWUTEC0-6" edge="1">
          <mxGeometry relative="1" as="geometry">
            <mxPoint x="-1710" y="1520" as="targetPoint" />
            <Array as="points">
              <mxPoint x="-1710" y="1490" />
              <mxPoint x="-1970" y="1490" />
            </Array>
          </mxGeometry>
        </mxCell>
        <mxCell id="Kr9c1GuOgurX0YWUTEC0-4" style="edgeStyle=orthogonalEdgeStyle;rounded=0;orthogonalLoop=1;jettySize=auto;html=1;exitX=1;exitY=0.5;exitDx=0;exitDy=0;entryX=0.5;entryY=0;entryDx=0;entryDy=0;" parent="1" source="Kr9c1GuOgurX0YWUTEC0-5" target="Kr9c1GuOgurX0YWUTEC0-8" edge="1">
          <mxGeometry relative="1" as="geometry">
            <Array as="points">
              <mxPoint x="-1710" y="1310" />
              <mxPoint x="-1710" y="1490" />
              <mxPoint x="-1380" y="1490" />
            </Array>
          </mxGeometry>
        </mxCell>
        <mxCell id="Kr9c1GuOgurX0YWUTEC0-5" value="ENVIRONMENT" style="rounded=1;whiteSpace=wrap;html=1;" parent="1" vertex="1">
          <mxGeometry x="-1770" y="1280" width="120" height="60" as="geometry" />
        </mxCell>
        <mxCell id="Kr9c1GuOgurX0YWUTEC0-27" style="edgeStyle=orthogonalEdgeStyle;rounded=0;orthogonalLoop=1;jettySize=auto;html=1;entryX=0.5;entryY=0;entryDx=0;entryDy=0;" parent="1" source="Kr9c1GuOgurX0YWUTEC0-6" target="Kr9c1GuOgurX0YWUTEC0-18" edge="1">
          <mxGeometry relative="1" as="geometry" />
        </mxCell>
        <mxCell id="Kr9c1GuOgurX0YWUTEC0-6" value="INDOOR/PRIVATE SPACE" style="rounded=1;whiteSpace=wrap;html=1;" parent="1" vertex="1">
          <mxGeometry x="-2110" y="1610" width="280" height="50" as="geometry" />
        </mxCell>
        <mxCell id="Kr9c1GuOgurX0YWUTEC0-7" style="edgeStyle=orthogonalEdgeStyle;rounded=0;orthogonalLoop=1;jettySize=auto;html=1;entryX=0.5;entryY=0;entryDx=0;entryDy=0;exitX=0.5;exitY=1;exitDx=0;exitDy=0;" parent="1" source="Kr9c1GuOgurX0YWUTEC0-8" target="Kr9c1GuOgurX0YWUTEC0-9" edge="1">
          <mxGeometry relative="1" as="geometry">
            <mxPoint x="-1380" y="1720" as="sourcePoint" />
            <Array as="points">
              <mxPoint x="-1380" y="1720" />
              <mxPoint x="-1490" y="1720" />
            </Array>
          </mxGeometry>
        </mxCell>
        <mxCell id="Kr9c1GuOgurX0YWUTEC0-13" style="edgeStyle=orthogonalEdgeStyle;rounded=0;orthogonalLoop=1;jettySize=auto;html=1;entryX=0.5;entryY=0;entryDx=0;entryDy=0;" parent="1" source="Kr9c1GuOgurX0YWUTEC0-8" target="Kr9c1GuOgurX0YWUTEC0-10" edge="1">
          <mxGeometry relative="1" as="geometry">
            <mxPoint x="-1240" y="1770" as="targetPoint" />
            <Array as="points">
              <mxPoint x="-1380" y="1720" />
              <mxPoint x="-1240" y="1720" />
            </Array>
          </mxGeometry>
        </mxCell>
        <mxCell id="Kr9c1GuOgurX0YWUTEC0-8" value="OUTDOOR/PUBLIC PLACES&amp;nbsp;" style="rounded=1;whiteSpace=wrap;html=1;" parent="1" vertex="1">
          <mxGeometry x="-1520" y="1600" width="280" height="60" as="geometry" />
        </mxCell>
        <mxCell id="Kr9c1GuOgurX0YWUTEC0-25" style="edgeStyle=orthogonalEdgeStyle;rounded=0;orthogonalLoop=1;jettySize=auto;html=1;exitX=0.5;exitY=1;exitDx=0;exitDy=0;entryX=0.75;entryY=0;entryDx=0;entryDy=0;" parent="1" source="Kr9c1GuOgurX0YWUTEC0-9" target="Kr9c1GuOgurX0YWUTEC0-18" edge="1">
          <mxGeometry relative="1" as="geometry" />
        </mxCell>
        <mxCell id="Kr9c1GuOgurX0YWUTEC0-9" value="PUBLIC TRANSIT" style="rounded=1;whiteSpace=wrap;html=1;" parent="1" vertex="1">
          <mxGeometry x="-1550" y="1760" width="120" height="60" as="geometry" />
        </mxCell>
        <mxCell id="Kr9c1GuOgurX0YWUTEC0-26" style="edgeStyle=orthogonalEdgeStyle;rounded=0;orthogonalLoop=1;jettySize=auto;html=1;exitX=0.5;exitY=1;exitDx=0;exitDy=0;entryX=1;entryY=0.5;entryDx=0;entryDy=0;" parent="1" source="Kr9c1GuOgurX0YWUTEC0-10" target="Kr9c1GuOgurX0YWUTEC0-18" edge="1">
          <mxGeometry relative="1" as="geometry" />
        </mxCell>
        <mxCell id="Kr9c1GuOgurX0YWUTEC0-10" value="PUBLIC SPACES" style="rounded=1;whiteSpace=wrap;html=1;" parent="1" vertex="1">
          <mxGeometry x="-1300" y="1760" width="120" height="60" as="geometry" />
        </mxCell>
        <mxCell id="Kr9c1GuOgurX0YWUTEC0-16" style="edgeStyle=orthogonalEdgeStyle;rounded=0;orthogonalLoop=1;jettySize=auto;html=1;entryX=0.5;entryY=0;entryDx=0;entryDy=0;exitX=0.5;exitY=1;exitDx=0;exitDy=0;" parent="1" source="Kr9c1GuOgurX0YWUTEC0-18" target="Kr9c1GuOgurX0YWUTEC0-19" edge="1">
          <mxGeometry relative="1" as="geometry">
            <mxPoint x="-1680" y="2170" as="sourcePoint" />
            <Array as="points">
              <mxPoint x="-1690" y="2170" />
              <mxPoint x="-1870" y="2170" />
            </Array>
          </mxGeometry>
        </mxCell>
        <mxCell id="Kr9c1GuOgurX0YWUTEC0-17" style="edgeStyle=orthogonalEdgeStyle;rounded=0;orthogonalLoop=1;jettySize=auto;html=1;entryX=0.5;entryY=0;entryDx=0;entryDy=0;exitX=1;exitY=0.5;exitDx=0;exitDy=0;" parent="1" source="Kr9c1GuOgurX0YWUTEC0-19" target="Kr9c1GuOgurX0YWUTEC0-20" edge="1">
          <mxGeometry relative="1" as="geometry">
            <mxPoint x="-1540" y="2220" as="targetPoint" />
            <Array as="points">
              <mxPoint x="-1710" y="2240" />
            </Array>
          </mxGeometry>
        </mxCell>
        <mxCell id="Kr9c1GuOgurX0YWUTEC0-22" style="edgeStyle=orthogonalEdgeStyle;rounded=0;orthogonalLoop=1;jettySize=auto;html=1;exitX=0.75;exitY=1;exitDx=0;exitDy=0;entryX=0.389;entryY=0.03;entryDx=0;entryDy=0;entryPerimeter=0;" parent="1" source="Kr9c1GuOgurX0YWUTEC0-18" target="Kr9c1GuOgurX0YWUTEC0-23" edge="1">
          <mxGeometry relative="1" as="geometry">
            <mxPoint x="-1260" y="2180" as="targetPoint" />
          </mxGeometry>
        </mxCell>
        <mxCell id="Kr9c1GuOgurX0YWUTEC0-18" value="PLATFORM" style="rounded=1;whiteSpace=wrap;html=1;" parent="1" vertex="1">
          <mxGeometry x="-1800" y="2050" width="280" height="60" as="geometry" />
        </mxCell>
        <mxCell id="Kr9c1GuOgurX0YWUTEC0-19" value="APP" style="rounded=1;whiteSpace=wrap;html=1;" parent="1" vertex="1">
          <mxGeometry x="-1930" y="2210" width="120" height="60" as="geometry" />
        </mxCell>
        <mxCell id="Kr9c1GuOgurX0YWUTEC0-20" value="WEBSITE" style="rounded=1;whiteSpace=wrap;html=1;" parent="1" vertex="1">
          <mxGeometry x="-1770" y="2320" width="120" height="60" as="geometry" />
        </mxCell>
        <mxCell id="Kr9c1GuOgurX0YWUTEC0-35" style="edgeStyle=orthogonalEdgeStyle;rounded=0;orthogonalLoop=1;jettySize=auto;html=1;entryX=0.75;entryY=0;entryDx=0;entryDy=0;" parent="1" source="Kr9c1GuOgurX0YWUTEC0-23" target="Kr9c1GuOgurX0YWUTEC0-32" edge="1">
          <mxGeometry relative="1" as="geometry" />
        </mxCell>
        <mxCell id="Kr9c1GuOgurX0YWUTEC0-23" value="&lt;font style=&quot;font-size: 14px;&quot;&gt;SERVERS /&lt;/font&gt;&lt;div&gt;&lt;font size=&quot;3&quot;&gt;BIG RUNNING MACHINE&lt;/font&gt;&lt;/div&gt;" style="rounded=1;whiteSpace=wrap;html=1;" parent="1" vertex="1">
          <mxGeometry x="-1500" y="2220" width="150" height="60" as="geometry" />
        </mxCell>
        <mxCell id="Kr9c1GuOgurX0YWUTEC0-28" value="" style="endArrow=none;dashed=1;html=1;rounded=0;" parent="1" edge="1">
          <mxGeometry width="50" height="50" relative="1" as="geometry">
            <mxPoint x="-2125" y="2440" as="sourcePoint" />
            <mxPoint x="-1085" y="2440" as="targetPoint" />
            <Array as="points" />
          </mxGeometry>
        </mxCell>
        <mxCell id="Kr9c1GuOgurX0YWUTEC0-29" value="&lt;font style=&quot;font-size: 18px;&quot;&gt;HARDWARE&lt;/font&gt;&lt;div&gt;&lt;font size=&quot;3&quot;&gt;(WHERE THIS SORTWARE WILL BE IMPLEMENTED)&lt;/font&gt;&lt;/div&gt;" style="rounded=0;whiteSpace=wrap;html=1;" parent="1" vertex="1">
          <mxGeometry x="-2760" y="2500" width="450" height="130" as="geometry" />
        </mxCell>
        <mxCell id="Kr9c1GuOgurX0YWUTEC0-30" value="" style="endArrow=none;dashed=1;html=1;rounded=0;" parent="1" edge="1">
          <mxGeometry width="50" height="50" relative="1" as="geometry">
            <mxPoint x="-2080" y="1960" as="sourcePoint" />
            <mxPoint x="-1090" y="1960" as="targetPoint" />
            <Array as="points" />
          </mxGeometry>
        </mxCell>
        <mxCell id="Kr9c1GuOgurX0YWUTEC0-31" value="MOBILE DEVICE&amp;nbsp;" style="rounded=1;whiteSpace=wrap;html=1;" parent="1" vertex="1">
          <mxGeometry x="-1950" y="2550" width="170" height="60" as="geometry" />
        </mxCell>
        <mxCell id="Kr9c1GuOgurX0YWUTEC0-38" style="edgeStyle=orthogonalEdgeStyle;rounded=0;orthogonalLoop=1;jettySize=auto;html=1;exitX=0.5;exitY=0;exitDx=0;exitDy=0;entryX=0.75;entryY=1;entryDx=0;entryDy=0;" parent="1" source="Kr9c1GuOgurX0YWUTEC0-36" target="Kr9c1GuOgurX0YWUTEC0-32" edge="1">
          <mxGeometry relative="1" as="geometry" />
        </mxCell>
        <mxCell id="Kr9c1GuOgurX0YWUTEC0-32" value="CAMS" style="rounded=1;whiteSpace=wrap;html=1;" parent="1" vertex="1">
          <mxGeometry x="-1440" y="2550" width="170" height="60" as="geometry" />
        </mxCell>
        <mxCell id="Kr9c1GuOgurX0YWUTEC0-34" style="edgeStyle=orthogonalEdgeStyle;rounded=0;orthogonalLoop=1;jettySize=auto;html=1;exitX=0.5;exitY=1;exitDx=0;exitDy=0;entryX=0.643;entryY=0;entryDx=0;entryDy=0;entryPerimeter=0;" parent="1" source="Kr9c1GuOgurX0YWUTEC0-19" target="Kr9c1GuOgurX0YWUTEC0-31" edge="1">
          <mxGeometry relative="1" as="geometry" />
        </mxCell>
        <mxCell id="IYhzoumVv45daOD4Cr5G-11" style="edgeStyle=orthogonalEdgeStyle;rounded=0;orthogonalLoop=1;jettySize=auto;html=1;entryX=0.5;entryY=0;entryDx=0;entryDy=0;" edge="1" parent="1" source="Kr9c1GuOgurX0YWUTEC0-36" target="IYhzoumVv45daOD4Cr5G-8">
          <mxGeometry relative="1" as="geometry" />
        </mxCell>
        <mxCell id="Kr9c1GuOgurX0YWUTEC0-36" value="CCTV" style="rounded=1;whiteSpace=wrap;html=1;" parent="1" vertex="1">
          <mxGeometry x="-1570" y="2810" width="120" height="50" as="geometry" />
        </mxCell>
        <mxCell id="Kr9c1GuOgurX0YWUTEC0-49" style="edgeStyle=orthogonalEdgeStyle;rounded=0;orthogonalLoop=1;jettySize=auto;html=1;" parent="1" source="Kr9c1GuOgurX0YWUTEC0-42" edge="1">
          <mxGeometry relative="1" as="geometry">
            <mxPoint x="-1340" y="3870" as="targetPoint" />
            <Array as="points">
              <mxPoint x="-1260" y="3785" />
              <mxPoint x="-1340" y="3785" />
            </Array>
          </mxGeometry>
        </mxCell>
        <mxCell id="IYhzoumVv45daOD4Cr5G-6" style="edgeStyle=orthogonalEdgeStyle;rounded=0;orthogonalLoop=1;jettySize=auto;html=1;" edge="1" parent="1" source="Kr9c1GuOgurX0YWUTEC0-42" target="IYhzoumVv45daOD4Cr5G-4">
          <mxGeometry relative="1" as="geometry" />
        </mxCell>
        <mxCell id="Kr9c1GuOgurX0YWUTEC0-42" value="HERO MODEL" style="rounded=1;whiteSpace=wrap;html=1;" parent="1" vertex="1">
          <mxGeometry x="-1370" y="3650" width="120" height="60" as="geometry" />
        </mxCell>
        <mxCell id="Kr9c1GuOgurX0YWUTEC0-45" value="" style="endArrow=none;dashed=1;html=1;dashPattern=1 3;strokeWidth=2;rounded=0;" parent="1" edge="1">
          <mxGeometry width="50" height="50" relative="1" as="geometry">
            <mxPoint x="-1000" y="3830" as="sourcePoint" />
            <mxPoint x="-1000" y="3480" as="targetPoint" />
          </mxGeometry>
        </mxCell>
        <mxCell id="Kr9c1GuOgurX0YWUTEC0-48" style="edgeStyle=orthogonalEdgeStyle;rounded=0;orthogonalLoop=1;jettySize=auto;html=1;" parent="1" source="Kr9c1GuOgurX0YWUTEC0-47" target="Kr9c1GuOgurX0YWUTEC0-42" edge="1">
          <mxGeometry relative="1" as="geometry" />
        </mxCell>
        <mxCell id="Kr9c1GuOgurX0YWUTEC0-47" value="PREBUILT MODEL&amp;nbsp;" style="rounded=1;whiteSpace=wrap;html=1;" parent="1" vertex="1">
          <mxGeometry x="-970" y="3660" width="200" height="60" as="geometry" />
        </mxCell>
        <mxCell id="Kr9c1GuOgurX0YWUTEC0-50" value="CLASSFICATION&amp;nbsp;" style="rounded=1;whiteSpace=wrap;html=1;" parent="1" vertex="1">
          <mxGeometry x="-1400" y="3870" width="120" height="60" as="geometry" />
        </mxCell>
        <mxCell id="Kr9c1GuOgurX0YWUTEC0-51" value="&lt;br&gt;&lt;div&gt;&lt;br&gt;&lt;/div&gt;" style="text;html=1;align=center;verticalAlign=middle;resizable=0;points=[];autosize=1;strokeColor=none;fillColor=none;" parent="1" vertex="1">
          <mxGeometry x="-1165" y="3880" width="20" height="40" as="geometry" />
        </mxCell>
        <mxCell id="Kr9c1GuOgurX0YWUTEC0-53" value="&lt;div style=&quot;text-align: left; font-size: 16px;&quot;&gt;&lt;font style=&quot;font-size: 16px;&quot;&gt;&lt;br&gt;&lt;/font&gt;&lt;/div&gt;&lt;div style=&quot;text-align: left; font-size: 16px;&quot;&gt;&lt;font style=&quot;font-size: 16px;&quot;&gt;The Reason why classification is done here is because&amp;nbsp;&lt;/font&gt;&lt;/div&gt;&lt;div style=&quot;font-size: 16px;&quot;&gt;&lt;div style=&quot;text-align: left;&quot;&gt;&lt;font style=&quot;font-size: 16px;&quot;&gt;we assume that the previous model can target our first two pointers -&lt;/font&gt;&lt;/div&gt;&lt;font style=&quot;forced-color-adjust: none; color: rgb(0, 0, 0); font-family: Helvetica; font-style: normal; font-variant-ligatures: normal; font-variant-caps: normal; font-weight: 400; letter-spacing: normal; orphans: 2; text-indent: 0px; text-transform: none; widows: 2; word-spacing: 0px; -webkit-text-stroke-width: 0px; white-space: nowrap; background-color: rgb(251, 251, 251); text-decoration-thickness: initial; text-decoration-style: initial; text-decoration-color: initial; font-size: 16px;&quot;&gt;&lt;div style=&quot;text-align: left;&quot;&gt;1. Gender&amp;nbsp;&lt;/div&gt;&lt;/font&gt;&lt;div style=&quot;text-align: left; forced-color-adjust: none; color: rgb(0, 0, 0); font-family: Helvetica; font-style: normal; font-variant-ligatures: normal; font-variant-caps: normal; font-weight: 400; letter-spacing: normal; orphans: 2; text-indent: 0px; text-transform: none; widows: 2; word-spacing: 0px; -webkit-text-stroke-width: 0px; white-space: nowrap; background-color: rgb(251, 251, 251); text-decoration-thickness: initial; text-decoration-style: initial; text-decoration-color: initial;&quot;&gt;&lt;font style=&quot;forced-color-adjust: none; font-size: 16px;&quot;&gt;2.No. of Peoples&lt;/font&gt;&lt;/div&gt;&lt;div style=&quot;text-align: left;&quot;&gt;&lt;font style=&quot;font-size: 16px;&quot;&gt;3.Anomalies (which the previous model failed to solve)&lt;/font&gt;&lt;/div&gt;&lt;/div&gt;" style="text;html=1;align=center;verticalAlign=middle;resizable=0;points=[];autosize=1;strokeColor=none;fillColor=none;" parent="1" vertex="1">
          <mxGeometry x="-1210" y="3835" width="510" height="130" as="geometry" />
        </mxCell>
        <mxCell id="Kr9c1GuOgurX0YWUTEC0-55" style="edgeStyle=orthogonalEdgeStyle;rounded=0;orthogonalLoop=1;jettySize=auto;html=1;exitX=1;exitY=0.5;exitDx=0;exitDy=0;entryX=-0.004;entryY=0.494;entryDx=0;entryDy=0;entryPerimeter=0;" parent="1" source="Kr9c1GuOgurX0YWUTEC0-50" target="Kr9c1GuOgurX0YWUTEC0-53" edge="1">
          <mxGeometry relative="1" as="geometry" />
        </mxCell>
        <mxCell id="Kr9c1GuOgurX0YWUTEC0-63" style="edgeStyle=orthogonalEdgeStyle;rounded=0;orthogonalLoop=1;jettySize=auto;html=1;entryX=0.5;entryY=0;entryDx=0;entryDy=0;" parent="1" source="Kr9c1GuOgurX0YWUTEC0-61" target="Kr9c1GuOgurX0YWUTEC0-42" edge="1">
          <mxGeometry relative="1" as="geometry" />
        </mxCell>
        <mxCell id="Kr9c1GuOgurX0YWUTEC0-61" value="DATA EXCRACTION FOR GESTURE" style="rounded=1;whiteSpace=wrap;html=1;" parent="1" vertex="1">
          <mxGeometry x="-1620" y="3550" width="120" height="60" as="geometry" />
        </mxCell>
        <UserObject label="&lt;div&gt;&lt;font color=&quot;#007fff&quot;&gt;GESTURE DATA&lt;/font&gt;&lt;/div&gt;" link="www.google.com" linkTarget="_blank" id="IYhzoumVv45daOD4Cr5G-2">
          <mxCell style="text;html=1;align=center;verticalAlign=middle;resizable=0;points=[];autosize=1;strokeColor=none;fillColor=none;" vertex="1" parent="1">
            <mxGeometry x="-1690" y="3450" width="120" height="30" as="geometry" />
          </mxCell>
        </UserObject>
        <mxCell id="IYhzoumVv45daOD4Cr5G-3" style="edgeStyle=orthogonalEdgeStyle;rounded=0;orthogonalLoop=1;jettySize=auto;html=1;exitX=0.5;exitY=1;exitDx=0;exitDy=0;" edge="1" parent="1" source="Kr9c1GuOgurX0YWUTEC0-61" target="Kr9c1GuOgurX0YWUTEC0-61">
          <mxGeometry relative="1" as="geometry" />
        </mxCell>
        <mxCell id="IYhzoumVv45daOD4Cr5G-5" style="edgeStyle=orthogonalEdgeStyle;rounded=0;orthogonalLoop=1;jettySize=auto;html=1;" edge="1" parent="1" source="Kr9c1GuOgurX0YWUTEC0-50" target="IYhzoumVv45daOD4Cr5G-4">
          <mxGeometry relative="1" as="geometry" />
        </mxCell>
        <mxCell id="IYhzoumVv45daOD4Cr5G-32" style="edgeStyle=orthogonalEdgeStyle;rounded=0;orthogonalLoop=1;jettySize=auto;html=1;entryX=0.5;entryY=0;entryDx=0;entryDy=0;" edge="1" parent="1" source="IYhzoumVv45daOD4Cr5G-4" target="IYhzoumVv45daOD4Cr5G-26">
          <mxGeometry relative="1" as="geometry" />
        </mxCell>
        <mxCell id="IYhzoumVv45daOD4Cr5G-4" value="DETECTION" style="rounded=1;whiteSpace=wrap;html=1;" vertex="1" parent="1">
          <mxGeometry x="-1660" y="3870" width="120" height="60" as="geometry" />
        </mxCell>
        <mxCell id="IYhzoumVv45daOD4Cr5G-7" value="&lt;h1 style=&quot;margin-top: 0px;&quot;&gt;Heading&lt;/h1&gt;&lt;p&gt;Lorem ipsum dolor sit amet, consectetur adipisicing elit, sed do eiusmod tempor incididunt ut labore et dolore magna aliqua.&lt;/p&gt;" style="text;html=1;whiteSpace=wrap;overflow=hidden;rounded=0;" vertex="1" parent="1">
          <mxGeometry x="-2020" y="3835" width="180" height="120" as="geometry" />
        </mxCell>
        <mxCell id="IYhzoumVv45daOD4Cr5G-10" style="edgeStyle=orthogonalEdgeStyle;rounded=0;orthogonalLoop=1;jettySize=auto;html=1;entryX=0.5;entryY=0;entryDx=0;entryDy=0;" edge="1" parent="1" source="IYhzoumVv45daOD4Cr5G-8" target="Kr9c1GuOgurX0YWUTEC0-47">
          <mxGeometry relative="1" as="geometry" />
        </mxCell>
        <mxCell id="IYhzoumVv45daOD4Cr5G-12" style="edgeStyle=orthogonalEdgeStyle;rounded=0;orthogonalLoop=1;jettySize=auto;html=1;entryX=0.5;entryY=0;entryDx=0;entryDy=0;" edge="1" parent="1" source="IYhzoumVv45daOD4Cr5G-8" target="Kr9c1GuOgurX0YWUTEC0-61">
          <mxGeometry relative="1" as="geometry" />
        </mxCell>
        <mxCell id="IYhzoumVv45daOD4Cr5G-8" value="RAW DATA" style="shape=datastore;whiteSpace=wrap;html=1;" vertex="1" parent="1">
          <mxGeometry x="-1590" y="3360" width="60" height="60" as="geometry" />
        </mxCell>
        <mxCell id="IYhzoumVv45daOD4Cr5G-13" value="" style="endArrow=none;dashed=1;html=1;rounded=0;" edge="1" parent="1">
          <mxGeometry width="50" height="50" relative="1" as="geometry">
            <mxPoint x="-2380" y="4070" as="sourcePoint" />
            <mxPoint x="-400" y="4070" as="targetPoint" />
          </mxGeometry>
        </mxCell>
        <mxCell id="IYhzoumVv45daOD4Cr5G-14" value="" style="endArrow=none;dashed=1;html=1;rounded=0;" edge="1" parent="1">
          <mxGeometry width="50" height="50" relative="1" as="geometry">
            <mxPoint x="-2450" y="3110" as="sourcePoint" />
            <mxPoint x="-470" y="3110" as="targetPoint" />
          </mxGeometry>
        </mxCell>
        <mxCell id="IYhzoumVv45daOD4Cr5G-26" value="PLATFORM" style="whiteSpace=wrap;html=1;" vertex="1" parent="1">
          <mxGeometry x="-1650" y="4130" width="100" height="40" as="geometry" />
        </mxCell>
        <mxCell id="IYhzoumVv45daOD4Cr5G-30" value="" style="edgeStyle=elbowEdgeStyle;elbow=vertical;html=1;rounded=1;curved=0;sourcePerimeterSpacing=0;targetPerimeterSpacing=0;startSize=6;endSize=6;" edge="1" parent="1" source="IYhzoumVv45daOD4Cr5G-26" target="IYhzoumVv45daOD4Cr5G-29">
          <mxGeometry relative="1" as="geometry" />
        </mxCell>
        <mxCell id="IYhzoumVv45daOD4Cr5G-28" value="" style="edgeStyle=elbowEdgeStyle;elbow=vertical;html=1;rounded=1;curved=0;sourcePerimeterSpacing=0;targetPerimeterSpacing=0;startSize=6;endSize=6;" edge="1" parent="1" source="IYhzoumVv45daOD4Cr5G-26" target="IYhzoumVv45daOD4Cr5G-27">
          <mxGeometry relative="1" as="geometry" />
        </mxCell>
        <mxCell id="IYhzoumVv45daOD4Cr5G-27" value="Child 1" style="whiteSpace=wrap;html=1;" vertex="1" parent="1">
          <mxGeometry x="-1790" y="4290" width="100" height="40" as="geometry" />
        </mxCell>
        <mxCell id="IYhzoumVv45daOD4Cr5G-29" value="Child 2" style="whiteSpace=wrap;html=1;" vertex="1" parent="1">
          <mxGeometry x="-1520" y="4290" width="100" height="40" as="geometry" />
        </mxCell>
      </root>
    </mxGraphModel>
  </diagram>
</mxfile>
